<?xml version="1.0" encoding="UTF-8" standalone="no"?>
<!-- Created with Inkscape (http://www.inkscape.org/) -->

<svg
   version="1.1"
   id="svg1"
   width="448.5603"
   height="511.15338"
   viewBox="0 0 448.5603 511.15338"
   xmlns="http://www.w3.org/2000/svg"
   xmlns:svg="http://www.w3.org/2000/svg">
  <defs
     id="defs1" />
  <g
     id="g1"
     transform="translate(-31.740843,-0.54103792)">
    <path
       style="display:inline;fill:#000000"
       d="m 185.13708,510.69152 c -4.86437,-1.84809 -10.82475,-7.18962 -13.40192,-12.01044 L 169.5,494.5 169,399 c -0.45877,-87.62439 -0.64095,-95.75741 -2.20917,-98.62138 -0.94004,-1.71676 -30.36907,-42.21676 -65.39784,-90 C 66.364213,162.59538 36.667695,121.925 35.400722,120 28.1241,108.94412 32.106315,93.572732 43.730006,87.848885 L 48.5,85.5 l 99.12453,-0.27336 99.12452,-0.27336 2.25594,-6.22664 C 263.1184,39.772103 296.31273,11.277146 338,2.3307828 c 11.17253,-2.39769791 36.13466,-2.38365385 46.83763,0.026351 60.32938,13.5844762 99.76574,66.0046162 95.08795,126.3941062 -2.1613,27.90198 -12.82832,51.6773 -32.35734,72.12008 -18.02561,18.86903 -40.99636,31.40293 -65.32805,35.64603 -12.24635,2.13558 -32.54831,1.90862 -44.19329,-0.49405 -5.19921,-1.07274 -9.5202,-1.85433 -9.60222,-1.73687 -0.082,0.11747 -10.50264,14.38857 -23.15696,31.71357 -12.65431,17.325 -23.85832,33.075 -24.89778,35 -1.78637,3.30819 -1.9194,7.33614 -2.42751,73.5 -0.42557,55.41654 -0.82025,70.76542 -1.89445,73.67399 -2.98227,8.07498 -8.24435,12.99248 -38.08795,35.59384 -16.21402,12.27931 -31.39235,23.47256 -33.72964,24.87389 -5.04059,3.0221 -14.01952,3.98504 -19.11331,2.0498 z M 224.30477,456.57169 248,438.64339 l 0.0174,-66.0717 c 0.0192,-73.01489 0.12456,-74.47156 6.21109,-85.86725 1.82262,-3.41244 12.66044,-18.92863 24.08405,-34.48042 11.42362,-15.55179 20.96445,-28.82679 21.20186,-29.5 0.23741,-0.67321 -2.50883,-3.2049 -6.10276,-5.62597 C 263.00556,196.61479 242,157.91076 242,122.36901 V 115 h -86.5 c -47.575,0 -86.5,0.12632 -86.5,0.28072 0,0.15439 27.211988,37.39189 60.47109,82.75 33.25909,45.3581 61.82006,84.98093 63.4688,88.05073 6.21293,11.56784 6.06011,8.96516 6.06011,103.21198 0,47.23028 0.36215,85.72324 0.80477,85.5399 0.44262,-0.18333 11.46762,-8.40107 24.5,-18.26164 z M 381.87699,205.89293 c 32.79303,-7.49949 59.53094,-34.80589 66.83683,-68.25786 2.32955,-10.6665 2.08052,-28.12125 -0.55551,-38.936419 C 438.6353,59.6275 405.25045,32.176737 365,30.321568 338.50121,29.100222 314.76494,38.792535 296.36007,58.349548 279.98713,75.747429 272,95.633377 272,119 c 0,57.96819 53.01821,99.89605 109.87699,86.89293 z m -52.69232,-43.95012 c -8.59451,-1.85855 -13.84311,-13.01789 -9.75586,-20.74247 0.78585,-1.48519 5.72074,-6.95141 10.96643,-12.14716 l 9.53762,-9.44681 -10.39399,-10.65858 c -8.11013,-8.31658 -10.54422,-11.459396 -11.07772,-14.303181 -1.44181,-7.685506 1.84114,-14.619488 8.17463,-17.265789 8.11985,-3.392688 13.82876,-0.73469 26.82527,12.489497 l 7.96105,8.100516 10.54757,-10.393821 c 8.51151,-8.387442 11.28841,-10.532802 14.38541,-11.113803 5.38513,-1.010256 10.88839,0.913117 14.55218,5.085942 2.58039,2.938906 3.09274,4.35588 3.09274,8.553387 0,2.76702 -0.49935,6.013861 -1.10968,7.215203 -0.61032,1.201343 -5.4294,6.561739 -10.70905,11.911999 l -9.59939,9.72773 9.56421,9.77227 c 10.99901,11.23828 12.02058,12.84256 12.02058,18.87716 0,8.4714 -6.09037,14.56177 -14.56177,14.56177 -6.03317,0 -7.63973,-1.02241 -18.85628,-12.00006 l -9.75138,-9.54369 -10.27803,10.11412 c -6.6348,6.529 -11.331,10.34734 -13.24862,10.77207 -1.63382,0.36186 -3.42059,0.76879 -3.97059,0.90428 -0.55,0.1355 -2.4919,-0.0763 -4.31533,-0.47058 z"
       id="path1" />
  </g>
</svg>
